<svg xmlns="http://www.w3.org/2000/svg" xmlns:xlink="http://www.w3.org/1999/xlink" width="500" zoomAndPan="magnify" viewBox="0 0 375 374.999991" height="500" preserveAspectRatio="xMidYMid meet" version="1.0"><defs><g/><clipPath id="8a65128ab0"><path d="M 17.25 -4.996094 L 357.75 -4.996094 C 362.324219 -4.996094 366.710938 -3.179688 369.949219 0.0546875 C 373.183594 3.289062 375 7.675781 375 12.253906 L 375 357.75 C 375 362.324219 373.183594 366.710938 369.949219 369.949219 C 366.710938 373.183594 362.324219 375 357.75 375 L 17.25 375 C 12.675781 375 8.289062 373.183594 5.050781 369.949219 C 1.816406 366.710938 0 362.324219 0 357.75 L 0 12.253906 C 0 7.675781 1.816406 3.289062 5.050781 0.0546875 C 8.289062 -3.179688 12.675781 -4.996094 17.25 -4.996094 Z M 17.25 -4.996094 " clip-rule="nonzero"/></clipPath></defs><rect x="-37.5" width="450" fill="#ffffff" y="-37.499999" height="449.999989" fill-opacity="1"/><rect x="-37.5" width="450" fill="#000000" y="-37.499999" height="449.999989" fill-opacity="1"/><g clip-path="url(#8a65128ab0)"><path fill="#ff7723" d="M 0 -4.996094 L 375 -4.996094 L 375 374.398438 L 0 374.398438 Z M 0 -4.996094 " fill-opacity="1" fill-rule="nonzero"/></g><g fill="#ffffff" fill-opacity="1"><g transform="translate(40.605471, 259.897603)"><g><path d="M 86.03125 -148.015625 C 103.300781 -148.015625 116.34375 -144.066406 125.15625 -136.171875 C 133.976562 -128.273438 138.390625 -116.679688 138.390625 -101.390625 C 138.390625 -67.222656 120.132812 -50.140625 83.625 -50.140625 L 51.796875 -50.140625 L 51.796875 0 L 37 0 L 37 -63.09375 L 80.484375 -63.09375 C 90.722656 -63.09375 98.957031 -64.382812 105.1875 -66.96875 C 111.414062 -69.5625 115.976562 -73.570312 118.875 -79 C 121.769531 -84.425781 123.21875 -91.582031 123.21875 -100.46875 C 123.21875 -112.425781 119.640625 -121.179688 112.484375 -126.734375 C 105.335938 -132.285156 94.175781 -135.0625 79 -135.0625 L 25.90625 -135.0625 L 25.90625 0 L 11.09375 0 L 11.09375 -148.015625 Z M 37 -124.703125 L 81.40625 -124.703125 C 91.144531 -124.703125 98.632812 -122.570312 103.875 -118.3125 C 109.125 -114.0625 111.75 -107.800781 111.75 -99.53125 C 111.75 -90.90625 109.34375 -84.398438 104.53125 -80.015625 C 99.71875 -75.640625 92.253906 -73.453125 82.140625 -73.453125 L 37 -73.453125 Z M 82.140625 -86.40625 C 91.765625 -86.40625 96.578125 -90.722656 96.578125 -99.359375 C 96.578125 -103.421875 95.375 -106.5 92.96875 -108.59375 C 90.5625 -110.695312 86.953125 -111.75 82.140625 -111.75 L 51.796875 -111.75 L 51.796875 -86.40625 Z M 82.140625 -86.40625 "/></g></g></g><g fill="#ffffff" fill-opacity="1"><g transform="translate(184.538524, 259.897603)"><g><path d="M 25.90625 -148.015625 L 25.90625 0 L 11.09375 0 L 11.09375 -148.015625 Z M 51.796875 -148.015625 L 51.796875 -92.875 L 98.0625 -92.875 L 98.0625 -148.015625 L 112.859375 -148.015625 L 112.859375 -79.921875 L 37 -79.921875 L 37 -148.015625 Z M 138.765625 -148.015625 L 138.765625 0 L 123.953125 0 L 123.953125 -148.015625 Z M 112.859375 -69.5625 L 112.859375 0 L 98.0625 0 L 98.0625 -56.609375 L 51.796875 -56.609375 L 51.796875 0 L 37 0 L 37 -69.5625 Z M 112.859375 -69.5625 "/></g></g></g></svg>